<?xml version="1.0" encoding="UTF-8" standalone="no"?>
<!DOCTYPE svg PUBLIC "-//W3C//DTD SVG 1.1//EN"
 "http://www.w3.org/Graphics/SVG/1.1/DTD/svg11.dtd">
<!-- Generated by graphviz version 14.0.4 (20251115.1723)
 -->
<!-- Title: SkinCycle Pages: 1 -->
<svg width="1628pt" height="2555pt"
 viewBox="0.00 0.00 1628.00 2555.00" xmlns="http://www.w3.org/2000/svg" xmlns:xlink="http://www.w3.org/1999/xlink">
<g id="graph0" class="graph" transform="scale(1 1) rotate(0) translate(4 2551)">
<title>SkinCycle</title>
<polygon fill="white" stroke="none" points="-4,4 -4,-2551 1623.62,-2551 1623.62,4 -4,4"/>
<!-- Group A+Group F Marriage -->
<g id="node1" class="node">
<title>Group A+Group F Marriage</title>
<polygon fill="lightgrey" stroke="lightgrey" points="1378.62,-2547 1213.35,-2529 1378.62,-2511 1543.89,-2529 1378.62,-2547"/>
<text xml:space="preserve" text-anchor="middle" x="1378.62" y="-2523.95" font-family="Times New Roman,serif" font-size="14.00">Group A+Group F Marriage</text>
</g>
<!-- Group K -->
<g id="node4" class="node">
<title>Group K</title>
<polygon fill="none" stroke="blue" points="1030.62,-2458.5 966.62,-2458.5 966.62,-2422.5 1030.62,-2422.5 1030.62,-2458.5"/>
<text xml:space="preserve" text-anchor="middle" x="998.62" y="-2435.45" font-family="Times New Roman,serif" font-size="14.00">Group K</text>
</g>
<!-- Group A+Group F Marriage&#45;&gt;Group K -->
<g id="edge3" class="edge">
<title>Group A+Group F Marriage&#45;&gt;Group K</title>
<path fill="none" stroke="black" d="M1326.97,-2516.24C1251.52,-2499.07 1112.5,-2467.42 1042.02,-2451.38"/>
<polygon fill="black" stroke="black" points="1042.91,-2447.99 1032.39,-2449.19 1041.36,-2454.82 1042.91,-2447.99"/>
<text xml:space="preserve" text-anchor="middle" x="1236.15" y="-2479.7" font-family="Times New Roman,serif" font-size="14.00">male</text>
</g>
<!-- Group L -->
<g id="node5" class="node">
<title>Group L</title>
<ellipse fill="none" stroke="pink" cx="816.62" cy="-2117.5" rx="42.65" ry="18"/>
<text xml:space="preserve" text-anchor="middle" x="816.62" y="-2112.45" font-family="Times New Roman,serif" font-size="14.00">Group L</text>
</g>
<!-- Group A+Group F Marriage&#45;&gt;Group L -->
<g id="edge4" class="edge">
<title>Group A+Group F Marriage&#45;&gt;Group L</title>
<path fill="none" stroke="black" d="M1384.83,-2511.36C1390.71,-2494.13 1398.62,-2466.32 1398.62,-2441.5 1398.62,-2441.5 1398.62,-2441.5 1398.62,-2278 1398.62,-2168.98 1013.98,-2131.81 870.09,-2121.71"/>
<polygon fill="black" stroke="black" points="870.67,-2118.24 860.45,-2121.05 870.19,-2125.23 870.67,-2118.24"/>
<text xml:space="preserve" text-anchor="middle" x="1417.37" y="-2318.2" font-family="Times New Roman,serif" font-size="14.00">female</text>
</g>
<!-- Group A -->
<g id="node2" class="node">
<title>Group A</title>
<polygon fill="none" stroke="blue" points="1217.24,-2297 1153.99,-2297 1153.99,-2261 1217.24,-2261 1217.24,-2297"/>
<text xml:space="preserve" text-anchor="middle" x="1185.62" y="-2273.95" font-family="Times New Roman,serif" font-size="14.00">Group A</text>
</g>
<!-- Group A&#45;&gt;Group A+Group F Marriage -->
<g id="edge1" class="edge">
<title>Group A&#45;&gt;Group A+Group F Marriage</title>
<path fill="none" stroke="black" d="M1199.15,-2297.39C1232.79,-2340.62 1320.3,-2453.07 1359.33,-2503.22"/>
<polygon fill="black" stroke="black" points="1356.42,-2505.17 1365.32,-2510.91 1361.94,-2500.87 1356.42,-2505.17"/>
</g>
<!-- Group F+Group A Marriage -->
<g id="node22" class="node">
<title>Group F+Group A Marriage</title>
<polygon fill="lightgrey" stroke="lightgrey" points="772.62,-2224 608.07,-2206 772.62,-2188 937.16,-2206 772.62,-2224"/>
<text xml:space="preserve" text-anchor="middle" x="772.62" y="-2200.95" font-family="Times New Roman,serif" font-size="14.00">Group F+Group A Marriage</text>
</g>
<!-- Group A&#45;&gt;Group F+Group A Marriage -->
<g id="edge22" class="edge">
<title>Group A&#45;&gt;Group F+Group A Marriage</title>
<path fill="none" stroke="black" d="M1153.55,-2272.49C1087.94,-2261.21 936.9,-2235.24 845.95,-2219.61"/>
<polygon fill="black" stroke="black" points="846.56,-2216.16 836.11,-2217.92 845.37,-2223.06 846.56,-2216.16"/>
</g>
<!-- Group F -->
<g id="node3" class="node">
<title>Group F</title>
<ellipse fill="none" stroke="pink" cx="135.62" cy="-18" rx="42.14" ry="18"/>
<text xml:space="preserve" text-anchor="middle" x="135.62" y="-12.95" font-family="Times New Roman,serif" font-size="14.00">Group F</text>
</g>
<!-- Group F&#45;&gt;Group A+Group F Marriage -->
<g id="edge2" class="edge">
<title>Group F&#45;&gt;Group A+Group F Marriage</title>
<path fill="none" stroke="black" d="M178.03,-19.2C420.44,-20.6 1619.62,-31.26 1619.62,-105.5 1619.62,-2441.5 1619.62,-2441.5 1619.62,-2441.5 1619.62,-2477 1525.82,-2501.87 1455.26,-2515.56"/>
<polygon fill="black" stroke="black" points="1454.81,-2512.08 1445.64,-2517.38 1456.12,-2518.96 1454.81,-2512.08"/>
</g>
<!-- Group F&#45;&gt;Group F+Group A Marriage -->
<g id="edge21" class="edge">
<title>Group F&#45;&gt;Group F+Group A Marriage</title>
<path fill="none" stroke="black" d="M97.65,-26.33C57.72,-36.5 0.62,-59.15 0.62,-105.5 0.62,-1355.25 0.62,-1355.25 0.62,-1355.25 0.62,-1383.75 -1.85,-1397.75 19.62,-1416.5 119.05,-1503.37 605.62,-1382.71 605.62,-1514.75 605.62,-2118.5 605.62,-2118.5 605.62,-2118.5 605.62,-2160.01 646.81,-2181.63 688.27,-2192.87"/>
<polygon fill="black" stroke="black" points="687.35,-2196.24 697.9,-2195.27 689.05,-2189.45 687.35,-2196.24"/>
</g>
<!-- Group K+Group P Marriage -->
<g id="node28" class="node">
<title>Group K+Group P Marriage</title>
<polygon fill="lightgrey" stroke="lightgrey" points="847.62,-2385.5 681.62,-2367.5 847.62,-2349.5 1013.61,-2367.5 847.62,-2385.5"/>
<text xml:space="preserve" text-anchor="middle" x="847.62" y="-2362.45" font-family="Times New Roman,serif" font-size="14.00">Group K+Group P Marriage</text>
</g>
<!-- Group K&#45;&gt;Group K+Group P Marriage -->
<g id="edge41" class="edge">
<title>Group K&#45;&gt;Group K+Group P Marriage</title>
<path fill="none" stroke="black" d="M966.22,-2424.27C943.35,-2413.51 912.54,-2399.03 888.05,-2387.51"/>
<polygon fill="black" stroke="black" points="889.55,-2384.35 879.02,-2383.26 886.58,-2390.69 889.55,-2384.35"/>
</g>
<!-- Group P+Group K Marriage -->
<g id="node33" class="node">
<title>Group P+Group K Marriage</title>
<polygon fill="lightgrey" stroke="lightgrey" points="1425.62,-447.5 1259.62,-429.5 1425.62,-411.5 1591.61,-429.5 1425.62,-447.5"/>
<text xml:space="preserve" text-anchor="middle" x="1425.62" y="-424.45" font-family="Times New Roman,serif" font-size="14.00">Group P+Group K Marriage</text>
</g>
<!-- Group K&#45;&gt;Group P+Group K Marriage -->
<g id="edge62" class="edge">
<title>Group K&#45;&gt;Group P+Group K Marriage</title>
<path fill="none" stroke="black" d="M1030.98,-2434.54C1130.4,-2417.29 1424.62,-2350.38 1424.62,-2162.75 1424.62,-2162.75 1424.62,-2162.75 1424.62,-501.5 1424.62,-487.58 1424.81,-472.13 1425.03,-459.2"/>
<polygon fill="black" stroke="black" points="1428.53,-459.29 1425.21,-449.23 1421.53,-459.16 1428.53,-459.29"/>
</g>
<!-- Group L+Group O Marriage -->
<g id="node29" class="node">
<title>Group L+Group O Marriage</title>
<polygon fill="lightgrey" stroke="lightgrey" points="838.62,-2062.5 671.9,-2044.5 838.62,-2026.5 1005.33,-2044.5 838.62,-2062.5"/>
<text xml:space="preserve" text-anchor="middle" x="838.62" y="-2039.45" font-family="Times New Roman,serif" font-size="14.00">Group L+Group O Marriage</text>
</g>
<!-- Group L&#45;&gt;Group L+Group O Marriage -->
<g id="edge45" class="edge">
<title>Group L&#45;&gt;Group L+Group O Marriage</title>
<path fill="none" stroke="black" d="M821.94,-2099.31C824.41,-2091.35 827.4,-2081.69 830.17,-2072.77"/>
<polygon fill="black" stroke="black" points="833.43,-2074.07 833.04,-2063.49 826.74,-2072 833.43,-2074.07"/>
</g>
<!-- Group O+Group L Marriage -->
<g id="node32" class="node">
<title>Group O+Group L Marriage</title>
<polygon fill="lightgrey" stroke="lightgrey" points="826.62,-770.5 659.9,-752.5 826.62,-734.5 993.33,-752.5 826.62,-770.5"/>
<text xml:space="preserve" text-anchor="middle" x="826.62" y="-747.45" font-family="Times New Roman,serif" font-size="14.00">Group O+Group L Marriage</text>
</g>
<!-- Group L&#45;&gt;Group O+Group L Marriage -->
<g id="edge58" class="edge">
<title>Group L&#45;&gt;Group O+Group L Marriage</title>
<path fill="none" stroke="black" d="M773.85,-2116.66C722.62,-2114.34 643.62,-2101.67 643.62,-2045.5 643.62,-2045.5 643.62,-2045.5 643.62,-1596 643.62,-1522.69 681.62,-1508.81 681.62,-1435.5 681.62,-1435.5 681.62,-1435.5 681.62,-824.5 681.62,-793.15 709.3,-775.64 740.47,-765.86"/>
<polygon fill="black" stroke="black" points="741.02,-769.34 749.69,-763.25 739.11,-762.61 741.02,-769.34"/>
</g>
<!-- Group B+Group E Marriage -->
<g id="node6" class="node">
<title>Group B+Group E Marriage</title>
<polygon fill="lightgrey" stroke="lightgrey" points="361.62,-1255 195.62,-1237 361.62,-1219 527.61,-1237 361.62,-1255"/>
<text xml:space="preserve" text-anchor="middle" x="361.62" y="-1231.95" font-family="Times New Roman,serif" font-size="14.00">Group B+Group E Marriage</text>
</g>
<!-- Group M -->
<g id="node9" class="node">
<title>Group M</title>
<polygon fill="none" stroke="blue" points="249.12,-197.5 182.12,-197.5 182.12,-161.5 249.12,-161.5 249.12,-197.5"/>
<text xml:space="preserve" text-anchor="middle" x="215.62" y="-174.45" font-family="Times New Roman,serif" font-size="14.00">Group M</text>
</g>
<!-- Group B+Group E Marriage&#45;&gt;Group M -->
<g id="edge7" class="edge">
<title>Group B+Group E Marriage&#45;&gt;Group M</title>
<path fill="none" stroke="black" d="M298.04,-1225.47C256.38,-1214.51 209.62,-1192.62 209.62,-1149.5 209.62,-1149.5 209.62,-1149.5 209.62,-267 209.62,-247.62 211.13,-225.85 212.64,-209"/>
<polygon fill="black" stroke="black" points="216.11,-209.5 213.57,-199.21 209.14,-208.84 216.11,-209.5"/>
<text xml:space="preserve" text-anchor="middle" x="223.12" y="-703.2" font-family="Times New Roman,serif" font-size="14.00">male</text>
</g>
<!-- Group N -->
<g id="node10" class="node">
<title>Group N</title>
<ellipse fill="none" stroke="pink" cx="1196.62" cy="-1148.5" rx="43.67" ry="18"/>
<text xml:space="preserve" text-anchor="middle" x="1196.62" y="-1143.45" font-family="Times New Roman,serif" font-size="14.00">Group N</text>
</g>
<!-- Group B+Group E Marriage&#45;&gt;Group N -->
<g id="edge8" class="edge">
<title>Group B+Group E Marriage&#45;&gt;Group N</title>
<path fill="none" stroke="black" d="M443.96,-1227.47C614.25,-1209.83 1001.02,-1169.76 1143.03,-1155.05"/>
<polygon fill="black" stroke="black" points="1143.33,-1158.54 1152.91,-1154.03 1142.6,-1151.58 1143.33,-1158.54"/>
<text xml:space="preserve" text-anchor="middle" x="872.66" y="-1187.7" font-family="Times New Roman,serif" font-size="14.00">female</text>
</g>
<!-- Group B -->
<g id="node7" class="node">
<title>Group B</title>
<ellipse fill="none" stroke="pink" cx="536.62" cy="-341" rx="43.16" ry="18"/>
<text xml:space="preserve" text-anchor="middle" x="536.62" y="-335.95" font-family="Times New Roman,serif" font-size="14.00">Group B</text>
</g>
<!-- Group B&#45;&gt;Group B+Group E Marriage -->
<g id="edge5" class="edge">
<title>Group B&#45;&gt;Group B+Group E Marriage</title>
<path fill="none" stroke="black" d="M505.92,-354.14C477.51,-367.63 439.62,-392.4 439.62,-428.5 439.62,-1149.5 439.62,-1149.5 439.62,-1149.5 439.62,-1177.03 417.55,-1199.74 396.9,-1214.98"/>
<polygon fill="black" stroke="black" points="395.05,-1212 388.83,-1220.58 399.04,-1217.75 395.05,-1212"/>
</g>
<!-- Group E+Group B Marriage -->
<g id="node21" class="node">
<title>Group E+Group B Marriage</title>
<polygon fill="lightgrey" stroke="lightgrey" points="441.62,-286 275.62,-268 441.62,-250 607.61,-268 441.62,-286"/>
<text xml:space="preserve" text-anchor="middle" x="441.62" y="-262.95" font-family="Times New Roman,serif" font-size="14.00">Group E+Group B Marriage</text>
</g>
<!-- Group B&#45;&gt;Group E+Group B Marriage -->
<g id="edge18" class="edge">
<title>Group B&#45;&gt;Group E+Group B Marriage</title>
<path fill="none" stroke="black" d="M516.47,-324.94C503.33,-315.13 485.96,-302.14 471.26,-291.16"/>
<polygon fill="black" stroke="black" points="473.38,-288.37 463.27,-285.19 469.19,-293.98 473.38,-288.37"/>
</g>
<!-- Group E -->
<g id="node8" class="node">
<title>Group E</title>
<polygon fill="none" stroke="blue" points="205.87,-1328 143.37,-1328 143.37,-1292 205.87,-1292 205.87,-1328"/>
<text xml:space="preserve" text-anchor="middle" x="174.62" y="-1304.95" font-family="Times New Roman,serif" font-size="14.00">Group E</text>
</g>
<!-- Group E&#45;&gt;Group B+Group E Marriage -->
<g id="edge6" class="edge">
<title>Group E&#45;&gt;Group B+Group E Marriage</title>
<path fill="none" stroke="black" d="M206.34,-1296.96C236.24,-1285.6 281.4,-1268.46 315.32,-1255.58"/>
<polygon fill="black" stroke="black" points="316.38,-1258.92 324.49,-1252.1 313.9,-1252.37 316.38,-1258.92"/>
</g>
<!-- Group E&#45;&gt;Group E+Group B Marriage -->
<g id="edge17" class="edge">
<title>Group E&#45;&gt;Group E+Group B Marriage</title>
<path fill="none" stroke="black" d="M171.93,-1291.54C169.96,-1277.2 167.62,-1256.33 167.62,-1238 167.62,-1238 167.62,-1238 167.62,-913 167.62,-802.76 171.62,-775.24 171.62,-665 171.62,-665 171.62,-665 171.62,-465.5 171.62,-362.79 300.93,-308.13 380.57,-284.2"/>
<polygon fill="black" stroke="black" points="381.39,-287.61 390.01,-281.45 379.43,-280.89 381.39,-287.61"/>
</g>
<!-- Group J+Group M Marriage -->
<g id="node27" class="node">
<title>Group J+Group M Marriage</title>
<polygon fill="lightgrey" stroke="lightgrey" points="195.62,-1416.5 28.9,-1398.5 195.62,-1380.5 362.33,-1398.5 195.62,-1416.5"/>
<text xml:space="preserve" text-anchor="middle" x="195.62" y="-1393.45" font-family="Times New Roman,serif" font-size="14.00">Group J+Group M Marriage</text>
</g>
<!-- Group M&#45;&gt;Group J+Group M Marriage -->
<g id="edge38" class="edge">
<title>Group M&#45;&gt;Group J+Group M Marriage</title>
<path fill="none" stroke="black" d="M195.69,-197.94C160.64,-230.67 91.62,-305.16 91.62,-384.25 91.62,-1311 91.62,-1311 91.62,-1311 91.62,-1342.76 120.63,-1365.1 148.01,-1379.11"/>
<polygon fill="black" stroke="black" points="146.47,-1382.25 157,-1383.42 149.5,-1375.94 146.47,-1382.25"/>
</g>
<!-- Group M+Group J Marriage -->
<g id="node30" class="node">
<title>Group M+Group J Marriage</title>
<polygon fill="lightgrey" stroke="lightgrey" points="233.62,-124.5 66.9,-106.5 233.62,-88.5 400.33,-106.5 233.62,-124.5"/>
<text xml:space="preserve" text-anchor="middle" x="233.62" y="-101.45" font-family="Times New Roman,serif" font-size="14.00">Group M+Group J Marriage</text>
</g>
<!-- Group M&#45;&gt;Group M+Group J Marriage -->
<g id="edge49" class="edge">
<title>Group M&#45;&gt;Group M+Group J Marriage</title>
<path fill="none" stroke="black" d="M219.97,-161.31C221.94,-153.55 224.32,-144.18 226.53,-135.45"/>
<polygon fill="black" stroke="black" points="229.86,-136.55 228.93,-126 223.08,-134.83 229.86,-136.55"/>
</g>
<!-- Group I+Group N Marriage -->
<g id="node26" class="node">
<title>Group I+Group N Marriage</title>
<polygon fill="lightgrey" stroke="lightgrey" points="1039.62,-1739.5 876.52,-1721.5 1039.62,-1703.5 1202.71,-1721.5 1039.62,-1739.5"/>
<text xml:space="preserve" text-anchor="middle" x="1039.62" y="-1716.45" font-family="Times New Roman,serif" font-size="14.00">Group I+Group N Marriage</text>
</g>
<!-- Group N&#45;&gt;Group I+Group N Marriage -->
<g id="edge34" class="edge">
<title>Group N&#45;&gt;Group I+Group N Marriage</title>
<path fill="none" stroke="black" d="M1207.56,-1166.3C1217.5,-1183.19 1230.62,-1210.34 1230.62,-1236 1230.62,-1634 1230.62,-1634 1230.62,-1634 1230.62,-1678.39 1187.28,-1700.12 1141.89,-1710.7"/>
<polygon fill="black" stroke="black" points="1141.17,-1707.27 1132.12,-1712.78 1142.63,-1714.12 1141.17,-1707.27"/>
</g>
<!-- Group N+Group I Marriage -->
<g id="node31" class="node">
<title>Group N+Group I Marriage</title>
<polygon fill="lightgrey" stroke="lightgrey" points="1077.62,-1093.5 914.52,-1075.5 1077.62,-1057.5 1240.71,-1075.5 1077.62,-1093.5"/>
<text xml:space="preserve" text-anchor="middle" x="1077.62" y="-1070.45" font-family="Times New Roman,serif" font-size="14.00">Group N+Group I Marriage</text>
</g>
<!-- Group N&#45;&gt;Group N+Group I Marriage -->
<g id="edge53" class="edge">
<title>Group N&#45;&gt;Group N+Group I Marriage</title>
<path fill="none" stroke="black" d="M1173.59,-1132.95C1162.99,-1126.32 1150.22,-1118.43 1138.62,-1111.5 1130.49,-1106.65 1121.7,-1101.53 1113.38,-1096.75"/>
<polygon fill="black" stroke="black" points="1115.28,-1093.8 1104.87,-1091.87 1111.81,-1099.88 1115.28,-1093.8"/>
</g>
<!-- Group C+Group H Marriage -->
<g id="node11" class="node">
<title>Group C+Group H Marriage</title>
<polygon fill="lightgrey" stroke="lightgrey" points="1008.62,-1901 841.18,-1883 1008.62,-1865 1176.06,-1883 1008.62,-1901"/>
<text xml:space="preserve" text-anchor="middle" x="1008.62" y="-1877.95" font-family="Times New Roman,serif" font-size="14.00">Group C+Group H Marriage</text>
</g>
<!-- Group I -->
<g id="node14" class="node">
<title>Group I</title>
<polygon fill="none" stroke="blue" points="1047.99,-1812.5 989.24,-1812.5 989.24,-1776.5 1047.99,-1776.5 1047.99,-1812.5"/>
<text xml:space="preserve" text-anchor="middle" x="1018.62" y="-1789.45" font-family="Times New Roman,serif" font-size="14.00">Group I</text>
</g>
<!-- Group C+Group H Marriage&#45;&gt;Group I -->
<g id="edge11" class="edge">
<title>Group C+Group H Marriage&#45;&gt;Group I</title>
<path fill="none" stroke="black" d="M1010.59,-1864.91C1011.94,-1853.26 1013.76,-1837.55 1015.32,-1824.02"/>
<polygon fill="black" stroke="black" points="1018.76,-1824.69 1016.44,-1814.35 1011.81,-1823.89 1018.76,-1824.69"/>
<text xml:space="preserve" text-anchor="middle" x="1028.01" y="-1833.7" font-family="Times New Roman,serif" font-size="14.00">male</text>
</g>
<!-- Group J -->
<g id="node15" class="node">
<title>Group J</title>
<ellipse fill="none" stroke="pink" cx="829.62" cy="-1471.5" rx="40.6" ry="18"/>
<text xml:space="preserve" text-anchor="middle" x="829.62" y="-1466.45" font-family="Times New Roman,serif" font-size="14.00">Group J</text>
</g>
<!-- Group C+Group H Marriage&#45;&gt;Group J -->
<g id="edge12" class="edge">
<title>Group C+Group H Marriage&#45;&gt;Group J</title>
<path fill="none" stroke="black" d="M976.09,-1868.14C919.53,-1842.01 804.74,-1779.5 759.12,-1685.5 751.97,-1670.78 733.28,-1646.16 776.62,-1542 783.51,-1525.43 795.35,-1509.33 806.09,-1496.81"/>
<polygon fill="black" stroke="black" points="808.57,-1499.29 812.62,-1489.5 803.35,-1494.62 808.57,-1499.29"/>
<text xml:space="preserve" text-anchor="middle" x="777.87" y="-1672.2" font-family="Times New Roman,serif" font-size="14.00">female</text>
</g>
<!-- Group C -->
<g id="node12" class="node">
<title>Group C</title>
<polygon fill="none" stroke="blue" points="1202.24,-1651 1138.99,-1651 1138.99,-1615 1202.24,-1615 1202.24,-1651"/>
<text xml:space="preserve" text-anchor="middle" x="1170.62" y="-1627.95" font-family="Times New Roman,serif" font-size="14.00">Group C</text>
</g>
<!-- Group C&#45;&gt;Group C+Group H Marriage -->
<g id="edge9" class="edge">
<title>Group C&#45;&gt;Group C+Group H Marriage</title>
<path fill="none" stroke="black" d="M1186.3,-1651.31C1203.61,-1672.63 1227.11,-1709.69 1211.62,-1739.5 1179.05,-1802.15 1104.92,-1843 1055.83,-1864.28"/>
<polygon fill="black" stroke="black" points="1054.71,-1860.96 1046.85,-1868.06 1057.43,-1867.41 1054.71,-1860.96"/>
</g>
<!-- Group H+Group C Marriage -->
<g id="node25" class="node">
<title>Group H+Group C Marriage</title>
<polygon fill="lightgrey" stroke="lightgrey" points="952.62,-1578 785.18,-1560 952.62,-1542 1120.06,-1560 952.62,-1578"/>
<text xml:space="preserve" text-anchor="middle" x="952.62" y="-1554.95" font-family="Times New Roman,serif" font-size="14.00">Group H+Group C Marriage</text>
</g>
<!-- Group C&#45;&gt;Group H+Group C Marriage -->
<g id="edge30" class="edge">
<title>Group C&#45;&gt;Group H+Group C Marriage</title>
<path fill="none" stroke="black" d="M1138.92,-1621.68C1103.47,-1610.13 1045.55,-1591.27 1003.69,-1577.64"/>
<polygon fill="black" stroke="black" points="1004.91,-1574.35 994.32,-1574.58 1002.75,-1581.01 1004.91,-1574.35"/>
</g>
<!-- Group H -->
<g id="node13" class="node">
<title>Group H</title>
<ellipse fill="none" stroke="pink" cx="823.62" cy="-1956" rx="43.67" ry="18"/>
<text xml:space="preserve" text-anchor="middle" x="823.62" y="-1950.95" font-family="Times New Roman,serif" font-size="14.00">Group H</text>
</g>
<!-- Group H&#45;&gt;Group C+Group H Marriage -->
<g id="edge10" class="edge">
<title>Group H&#45;&gt;Group C+Group H Marriage</title>
<path fill="none" stroke="black" d="M854.58,-1943.12C884.1,-1931.79 928.91,-1914.59 962.6,-1901.66"/>
<polygon fill="black" stroke="black" points="963.62,-1905.02 971.71,-1898.17 961.12,-1898.48 963.62,-1905.02"/>
</g>
<!-- Group H&#45;&gt;Group H+Group C Marriage -->
<g id="edge29" class="edge">
<title>Group H&#45;&gt;Group H+Group C Marriage</title>
<path fill="none" stroke="black" d="M818.63,-1937.66C814.96,-1923.38 810.62,-1902.55 810.62,-1884 810.62,-1884 810.62,-1884 810.62,-1632 810.62,-1601.06 837.92,-1583.6 868.59,-1573.75"/>
<polygon fill="black" stroke="black" points="869.45,-1577.14 878.08,-1571 867.5,-1570.42 869.45,-1577.14"/>
</g>
<!-- Group I&#45;&gt;Group I+Group N Marriage -->
<g id="edge33" class="edge">
<title>Group I&#45;&gt;Group I+Group N Marriage</title>
<path fill="none" stroke="black" d="M1023.7,-1776.31C1026.03,-1768.44 1028.85,-1758.91 1031.46,-1750.07"/>
<polygon fill="black" stroke="black" points="1034.81,-1751.07 1034.29,-1740.49 1028.1,-1749.09 1034.81,-1751.07"/>
</g>
<!-- Group I&#45;&gt;Group N+Group I Marriage -->
<g id="edge54" class="edge">
<title>Group I&#45;&gt;Group N+Group I Marriage</title>
<path fill="none" stroke="black" d="M1048.28,-1793.13C1114.5,-1790.58 1268.62,-1774.31 1268.62,-1678.25 1268.62,-1678.25 1268.62,-1678.25 1268.62,-1191.75 1268.62,-1163.25 1269.74,-1150.69 1249.62,-1130.5 1227.87,-1108.68 1197.42,-1095.66 1168.17,-1087.89"/>
<polygon fill="black" stroke="black" points="1169.06,-1084.5 1158.52,-1085.52 1167.4,-1091.3 1169.06,-1084.5"/>
</g>
<!-- Group J&#45;&gt;Group J+Group M Marriage -->
<g id="edge37" class="edge">
<title>Group J&#45;&gt;Group J+Group M Marriage</title>
<path fill="none" stroke="black" d="M790.43,-1466.11C690.94,-1454.97 426.52,-1425.36 286.13,-1409.64"/>
<polygon fill="black" stroke="black" points="286.84,-1406.19 276.51,-1408.56 286.06,-1413.15 286.84,-1406.19"/>
</g>
<!-- Group J&#45;&gt;Group M+Group J Marriage -->
<g id="edge50" class="edge">
<title>Group J&#45;&gt;Group M+Group J Marriage</title>
<path fill="none" stroke="black" d="M869.87,-1468.72C984.87,-1463.12 1306.62,-1443.51 1306.62,-1399.5 1306.62,-1399.5 1306.62,-1399.5 1306.62,-950 1306.62,-697.24 1231.62,-639.01 1231.62,-386.25 1231.62,-386.25 1231.62,-386.25 1231.62,-178.5 1231.62,-136.39 658.86,-117.34 381.15,-110.57"/>
<polygon fill="black" stroke="black" points="381.36,-107.08 371.28,-110.33 381.2,-114.07 381.36,-107.08"/>
</g>
<!-- Group D +Group G Marriage -->
<g id="node16" class="node">
<title>Group D +Group G Marriage</title>
<polygon fill="lightgrey" stroke="lightgrey" points="941.62,-609 769.83,-591 941.62,-573 1113.4,-591 941.62,-609"/>
<text xml:space="preserve" text-anchor="middle" x="941.62" y="-585.95" font-family="Times New Roman,serif" font-size="14.00">Group D +Group G Marriage</text>
</g>
<!-- Group O -->
<g id="node19" class="node">
<title>Group O</title>
<polygon fill="none" stroke="blue" points="1113.62,-843.5 1049.62,-843.5 1049.62,-807.5 1113.62,-807.5 1113.62,-843.5"/>
<text xml:space="preserve" text-anchor="middle" x="1081.62" y="-820.45" font-family="Times New Roman,serif" font-size="14.00">Group O</text>
</g>
<!-- Group D +Group G Marriage&#45;&gt;Group O -->
<g id="edge15" class="edge">
<title>Group D +Group G Marriage&#45;&gt;Group O</title>
<path fill="none" stroke="black" d="M958.97,-607.61C970.19,-618.03 984.84,-632.3 996.62,-646 1015.91,-668.45 1021.69,-673.87 1035.62,-700 1052.44,-731.56 1065.77,-770.62 1073.66,-796.49"/>
<polygon fill="black" stroke="black" points="1070.26,-797.33 1076.47,-805.91 1076.97,-795.33 1070.26,-797.33"/>
<text xml:space="preserve" text-anchor="middle" x="1057.15" y="-703.2" font-family="Times New Roman,serif" font-size="14.00">male</text>
</g>
<!-- Group P -->
<g id="node20" class="node">
<title>Group P</title>
<ellipse fill="none" stroke="pink" cx="1032.62" cy="-502.5" rx="42.14" ry="18"/>
<text xml:space="preserve" text-anchor="middle" x="1032.62" y="-497.45" font-family="Times New Roman,serif" font-size="14.00">Group P</text>
</g>
<!-- Group D +Group G Marriage&#45;&gt;Group P -->
<g id="edge16" class="edge">
<title>Group D +Group G Marriage&#45;&gt;Group P</title>
<path fill="none" stroke="black" d="M957.89,-574.54C971.69,-561.41 991.72,-542.38 1007.56,-527.31"/>
<polygon fill="black" stroke="black" points="1009.94,-529.89 1014.78,-520.46 1005.12,-524.81 1009.94,-529.89"/>
<text xml:space="preserve" text-anchor="middle" x="1014.02" y="-541.7" font-family="Times New Roman,serif" font-size="14.00">female</text>
</g>
<!-- Group D  -->
<g id="node17" class="node">
<title>Group D </title>
<ellipse fill="none" stroke="black" cx="941.62" cy="-664" rx="46.23" ry="18"/>
<text xml:space="preserve" text-anchor="middle" x="941.62" y="-658.95" font-family="Times New Roman,serif" font-size="14.00">Group D </text>
</g>
<!-- Group D &#45;&gt;Group D +Group G Marriage -->
<g id="edge13" class="edge">
<title>Group D &#45;&gt;Group D +Group G Marriage</title>
<path fill="none" stroke="black" d="M941.62,-645.81C941.62,-638.23 941.62,-629.1 941.62,-620.54"/>
<polygon fill="black" stroke="black" points="945.12,-620.54 941.62,-610.54 938.12,-620.54 945.12,-620.54"/>
</g>
<!-- Group G -->
<g id="node18" class="node">
<title>Group G</title>
<polygon fill="none" stroke="blue" points="872.62,-682 808.62,-682 808.62,-646 872.62,-646 872.62,-682"/>
<text xml:space="preserve" text-anchor="middle" x="840.62" y="-658.95" font-family="Times New Roman,serif" font-size="14.00">Group G</text>
</g>
<!-- Group G&#45;&gt;Group D +Group G Marriage -->
<g id="edge14" class="edge">
<title>Group G&#45;&gt;Group D +Group G Marriage</title>
<path fill="none" stroke="black" d="M865.32,-645.63C879.12,-635.93 896.43,-623.77 911.07,-613.47"/>
<polygon fill="black" stroke="black" points="912.84,-616.51 919,-607.9 908.81,-610.78 912.84,-616.51"/>
</g>
<!-- Group G+Group D Marriage -->
<g id="node23" class="node">
<title>Group G+Group D Marriage</title>
<polygon fill="lightgrey" stroke="lightgrey" points="1072.62,-932 904.45,-914 1072.62,-896 1240.78,-914 1072.62,-932"/>
<text xml:space="preserve" text-anchor="middle" x="1072.62" y="-908.95" font-family="Times New Roman,serif" font-size="14.00">Group G+Group D Marriage</text>
</g>
<!-- Group G&#45;&gt;Group G+Group D Marriage -->
<g id="edge25" class="edge">
<title>Group G&#45;&gt;Group G+Group D Marriage</title>
<path fill="none" stroke="black" d="M872.86,-677.22C917.37,-694.33 993.25,-724.46 1002.62,-734.5 1037.61,-772.02 1021.42,-795.92 1040.62,-843.5 1046.44,-857.94 1053.64,-873.72 1059.73,-886.59"/>
<polygon fill="black" stroke="black" points="1056.41,-887.75 1063.88,-895.26 1062.72,-884.73 1056.41,-887.75"/>
</g>
<!-- Group O&#45;&gt;Group L+Group O Marriage -->
<g id="edge46" class="edge">
<title>Group O&#45;&gt;Group L+Group O Marriage</title>
<path fill="none" stroke="black" d="M1113.87,-830.21C1184.09,-839.18 1344.62,-864.93 1344.62,-913 1344.62,-1957 1344.62,-1957 1344.62,-1957 1344.62,-1996.96 1096.32,-2023.38 947.59,-2035.62"/>
<polygon fill="black" stroke="black" points="947.37,-2032.13 937.69,-2036.43 947.94,-2039.11 947.37,-2032.13"/>
</g>
<!-- Group O&#45;&gt;Group O+Group L Marriage -->
<g id="edge57" class="edge">
<title>Group O&#45;&gt;Group O+Group L Marriage</title>
<path fill="none" stroke="black" d="M1049.32,-815.51C1007.37,-803.83 933.47,-783.25 882.37,-769.02"/>
<polygon fill="black" stroke="black" points="883.54,-765.72 872.97,-766.41 881.66,-772.46 883.54,-765.72"/>
</g>
<!-- Group P&#45;&gt;Group K+Group P Marriage -->
<g id="edge42" class="edge">
<title>Group P&#45;&gt;Group K+Group P Marriage</title>
<path fill="none" stroke="black" d="M990.12,-502.96C879.95,-502.68 593.62,-509.7 593.62,-590 593.62,-1193.75 593.62,-1193.75 593.62,-1193.75 593.62,-1336.88 567.62,-1371.62 567.62,-1514.75 567.62,-2081.5 567.62,-2081.5 567.62,-2081.5 567.62,-2146.31 560.29,-2171.73 598.62,-2224 647.03,-2290.04 735.96,-2330.03 793.39,-2350.19"/>
<polygon fill="black" stroke="black" points="792.06,-2353.43 802.65,-2353.35 794.32,-2346.81 792.06,-2353.43"/>
</g>
<!-- Group P&#45;&gt;Group P+Group K Marriage -->
<g id="edge61" class="edge">
<title>Group P&#45;&gt;Group P+Group K Marriage</title>
<path fill="none" stroke="black" d="M1071.01,-494.56C1136.57,-482.72 1271.03,-458.43 1354.24,-443.39"/>
<polygon fill="black" stroke="black" points="1354.67,-446.87 1363.89,-441.65 1353.43,-439.99 1354.67,-446.87"/>
</g>
<!-- Group E+Group B Marriage&#45;&gt;Group M -->
<g id="edge19" class="edge">
<title>Group E+Group B Marriage&#45;&gt;Group M</title>
<path fill="none" stroke="black" d="M406.05,-253.39C366.6,-238.29 302.89,-213.9 260.15,-197.54"/>
<polygon fill="black" stroke="black" points="261.5,-194.31 250.91,-194.01 258.99,-200.85 261.5,-194.31"/>
<text xml:space="preserve" text-anchor="middle" x="362.36" y="-218.7" font-family="Times New Roman,serif" font-size="14.00">male</text>
</g>
<!-- Group E+Group B Marriage&#45;&gt;Group N -->
<g id="edge20" class="edge">
<title>Group E+Group B Marriage&#45;&gt;Group N</title>
<path fill="none" stroke="black" d="M504.86,-279.61C625.32,-302.01 892.69,-362.42 1083.62,-484.5 1126.34,-511.82 1134.99,-526.68 1155.62,-573 1173.41,-612.95 1268.62,-906.27 1268.62,-950 1268.62,-1076.5 1268.62,-1076.5 1268.62,-1076.5 1268.62,-1098.42 1251.48,-1115.85 1233.93,-1127.95"/>
<polygon fill="black" stroke="black" points="1232.08,-1124.99 1225.52,-1133.31 1235.84,-1130.89 1232.08,-1124.99"/>
<text xml:space="preserve" text-anchor="middle" x="1223.62" y="-703.2" font-family="Times New Roman,serif" font-size="14.00">female</text>
</g>
<!-- Group F+Group A Marriage&#45;&gt;Group K -->
<g id="edge23" class="edge">
<title>Group F+Group A Marriage&#45;&gt;Group K</title>
<path fill="none" stroke="black" d="M702.18,-2216.71C618.02,-2231.47 493.81,-2265.14 538.62,-2331.5 585.4,-2400.8 849.37,-2428.22 954.96,-2436.51"/>
<polygon fill="black" stroke="black" points="954.4,-2439.98 964.64,-2437.25 954.94,-2433 954.4,-2439.98"/>
<text xml:space="preserve" text-anchor="middle" x="552.12" y="-2318.2" font-family="Times New Roman,serif" font-size="14.00">male</text>
</g>
<!-- Group F+Group A Marriage&#45;&gt;Group L -->
<g id="edge24" class="edge">
<title>Group F+Group A Marriage&#45;&gt;Group L</title>
<path fill="none" stroke="black" d="M780.89,-2188.73C787.04,-2176.64 795.57,-2159.87 802.76,-2145.75"/>
<polygon fill="black" stroke="black" points="805.83,-2147.43 807.24,-2136.93 799.59,-2144.26 805.83,-2147.43"/>
<text xml:space="preserve" text-anchor="middle" x="817.31" y="-2156.7" font-family="Times New Roman,serif" font-size="14.00">female</text>
</g>
<!-- Group G+Group D Marriage&#45;&gt;Group O -->
<g id="edge27" class="edge">
<title>Group G+Group D Marriage&#45;&gt;Group O</title>
<path fill="none" stroke="black" d="M1074.39,-895.91C1075.61,-884.26 1077.24,-868.55 1078.65,-855.02"/>
<polygon fill="black" stroke="black" points="1082.1,-855.66 1079.65,-845.36 1075.14,-854.94 1082.1,-855.66"/>
<text xml:space="preserve" text-anchor="middle" x="1091.42" y="-864.7" font-family="Times New Roman,serif" font-size="14.00">male</text>
</g>
<!-- Group G+Group D Marriage&#45;&gt;Group P -->
<g id="edge28" class="edge">
<title>Group G+Group D Marriage&#45;&gt;Group P</title>
<path fill="none" stroke="black" d="M1095.21,-898.02C1115.33,-882.69 1141.62,-856.85 1141.62,-826.5 1141.62,-826.5 1141.62,-826.5 1141.62,-590 1141.62,-554.88 1106.47,-531.76 1076.1,-518.33"/>
<polygon fill="black" stroke="black" points="1077.59,-515.16 1067.01,-514.56 1074.91,-521.62 1077.59,-515.16"/>
<text xml:space="preserve" text-anchor="middle" x="1160.37" y="-703.2" font-family="Times New Roman,serif" font-size="14.00">female</text>
</g>
<!-- Group D -->
<g id="node24" class="node">
<title>Group D</title>
<ellipse fill="none" stroke="pink" cx="1072.62" cy="-987" rx="43.67" ry="18"/>
<text xml:space="preserve" text-anchor="middle" x="1072.62" y="-981.95" font-family="Times New Roman,serif" font-size="14.00">Group D</text>
</g>
<!-- Group D&#45;&gt;Group G+Group D Marriage -->
<g id="edge26" class="edge">
<title>Group D&#45;&gt;Group G+Group D Marriage</title>
<path fill="none" stroke="black" d="M1072.62,-968.81C1072.62,-961.23 1072.62,-952.1 1072.62,-943.54"/>
<polygon fill="black" stroke="black" points="1076.12,-943.54 1072.62,-933.54 1069.12,-943.54 1076.12,-943.54"/>
</g>
<!-- Group H+Group C Marriage&#45;&gt;Group I -->
<g id="edge31" class="edge">
<title>Group H+Group C Marriage&#45;&gt;Group I</title>
<path fill="none" stroke="black" d="M934.68,-1576.51C899.64,-1608.7 828.78,-1684.36 867.62,-1739.5 892.36,-1774.62 942.13,-1787.02 977.77,-1791.33"/>
<polygon fill="black" stroke="black" points="976.99,-1794.77 987.29,-1792.31 977.7,-1787.81 976.99,-1794.77"/>
<text xml:space="preserve" text-anchor="middle" x="877.16" y="-1672.2" font-family="Times New Roman,serif" font-size="14.00">male</text>
</g>
<!-- Group H+Group C Marriage&#45;&gt;Group J -->
<g id="edge32" class="edge">
<title>Group H+Group C Marriage&#45;&gt;Group J</title>
<path fill="none" stroke="black" d="M931.19,-1543.93C911.41,-1530.02 881.82,-1509.21 859.67,-1493.64"/>
<polygon fill="black" stroke="black" points="861.82,-1490.87 851.62,-1487.98 857.79,-1496.59 861.82,-1490.87"/>
<text xml:space="preserve" text-anchor="middle" x="920.88" y="-1510.7" font-family="Times New Roman,serif" font-size="14.00">female</text>
</g>
<!-- Group I+Group N Marriage&#45;&gt;Group C -->
<g id="edge35" class="edge">
<title>Group I+Group N Marriage&#45;&gt;Group C</title>
<path fill="none" stroke="black" d="M1081.33,-1707.62C1095.77,-1702.08 1111.59,-1694.72 1124.62,-1685.5 1134.6,-1678.43 1143.92,-1668.82 1151.54,-1659.82"/>
<polygon fill="black" stroke="black" points="1154.04,-1662.29 1157.59,-1652.31 1148.59,-1657.9 1154.04,-1662.29"/>
<text xml:space="preserve" text-anchor="middle" x="1156.53" y="-1672.2" font-family="Times New Roman,serif" font-size="14.00">male</text>
</g>
<!-- Group I+Group N Marriage&#45;&gt;Group D -->
<g id="edge36" class="edge">
<title>Group I+Group N Marriage&#45;&gt;Group D</title>
<path fill="none" stroke="black" d="M1055.91,-1705.21C1085.55,-1675.48 1143.9,-1607.06 1128.62,-1542 1101.51,-1426.62 839.85,-1156.1 905.62,-1057.5 930.83,-1019.69 980.91,-1002.42 1019.67,-994.55"/>
<polygon fill="black" stroke="black" points="1020.11,-998.03 1029.3,-992.76 1018.83,-991.15 1020.11,-998.03"/>
<text xml:space="preserve" text-anchor="middle" x="1046.3" y="-1349.2" font-family="Times New Roman,serif" font-size="14.00">female</text>
</g>
<!-- Group J+Group M Marriage&#45;&gt;Group F -->
<g id="edge40" class="edge">
<title>Group J+Group M Marriage&#45;&gt;Group F</title>
<path fill="none" stroke="black" d="M128.58,-1387.27C85.91,-1376.51 38.62,-1354.72 38.62,-1311 38.62,-1311 38.62,-1311 38.62,-105.5 38.62,-73.29 68.78,-50.1 95.47,-35.89"/>
<polygon fill="black" stroke="black" points="96.73,-39.18 104.1,-31.57 93.6,-32.92 96.73,-39.18"/>
<text xml:space="preserve" text-anchor="middle" x="57.37" y="-703.2" font-family="Times New Roman,serif" font-size="14.00">female</text>
</g>
<!-- Group J+Group M Marriage&#45;&gt;Group E -->
<g id="edge39" class="edge">
<title>Group J+Group M Marriage&#45;&gt;Group E</title>
<path fill="none" stroke="black" d="M191.57,-1380.82C188.7,-1369.01 184.78,-1352.88 181.44,-1339.1"/>
<polygon fill="black" stroke="black" points="184.91,-1338.58 179.15,-1329.69 178.11,-1340.23 184.91,-1338.58"/>
<text xml:space="preserve" text-anchor="middle" x="200.5" y="-1349.2" font-family="Times New Roman,serif" font-size="14.00">male</text>
</g>
<!-- Group K+Group P Marriage&#45;&gt;Group A -->
<g id="edge43" class="edge">
<title>Group K+Group P Marriage&#45;&gt;Group A</title>
<path fill="none" stroke="black" d="M895.33,-2354.29C961.42,-2337.38 1079.82,-2307.08 1143.06,-2290.89"/>
<polygon fill="black" stroke="black" points="1143.54,-2294.38 1152.36,-2288.51 1141.8,-2287.6 1143.54,-2294.38"/>
<text xml:space="preserve" text-anchor="middle" x="1060.39" y="-2318.2" font-family="Times New Roman,serif" font-size="14.00">male</text>
</g>
<!-- Group K+Group P Marriage&#45;&gt;Group B -->
<g id="edge44" class="edge">
<title>Group K+Group P Marriage&#45;&gt;Group B</title>
<path fill="none" stroke="black" d="M755.64,-2359C661.72,-2345.71 529.62,-2308.91 529.62,-2207 529.62,-2207 529.62,-2207 529.62,-1514.75 529.62,-1439.65 531.94,-1420.84 538.12,-1346 543.72,-1278.12 555.62,-1261.86 555.62,-1193.75 555.62,-1193.75 555.62,-1193.75 555.62,-428.5 555.62,-408.64 550.78,-386.79 545.98,-370.03"/>
<polygon fill="black" stroke="black" points="549.43,-369.32 543.17,-360.76 542.73,-371.35 549.43,-369.32"/>
<text xml:space="preserve" text-anchor="middle" x="556.87" y="-1349.2" font-family="Times New Roman,serif" font-size="14.00">female</text>
</g>
<!-- Group L+Group O Marriage&#45;&gt;Group H -->
<g id="edge48" class="edge">
<title>Group L+Group O Marriage&#45;&gt;Group H</title>
<path fill="none" stroke="black" d="M835.65,-2026.41C833.63,-2014.76 830.91,-1999.05 828.56,-1985.52"/>
<polygon fill="black" stroke="black" points="832.04,-1985.1 826.88,-1975.84 825.14,-1986.29 832.04,-1985.1"/>
<text xml:space="preserve" text-anchor="middle" x="851.21" y="-1995.2" font-family="Times New Roman,serif" font-size="14.00">female</text>
</g>
<!-- Group L+Group O Marriage&#45;&gt;Group G -->
<g id="edge47" class="edge">
<title>Group L+Group O Marriage&#45;&gt;Group G</title>
<path fill="none" stroke="black" d="M771.58,-2033.27C728.91,-2022.51 681.62,-2000.72 681.62,-1957 681.62,-1957 681.62,-1957 681.62,-1596 681.62,-1505.88 631.62,-1489.62 631.62,-1399.5 631.62,-1399.5 631.62,-1399.5 631.62,-751.5 631.62,-680.48 735.91,-666.64 797.15,-664.63"/>
<polygon fill="black" stroke="black" points="796.99,-668.13 806.9,-664.41 796.83,-661.13 796.99,-668.13"/>
<text xml:space="preserve" text-anchor="middle" x="645.12" y="-1349.2" font-family="Times New Roman,serif" font-size="14.00">male</text>
</g>
<!-- Group M+Group J Marriage&#45;&gt;Group F -->
<g id="edge52" class="edge">
<title>Group M+Group J Marriage&#45;&gt;Group F</title>
<path fill="none" stroke="black" d="M216.1,-90.04C201,-76.71 178.99,-57.28 161.8,-42.11"/>
<polygon fill="black" stroke="black" points="164.26,-39.62 154.45,-35.62 159.63,-44.87 164.26,-39.62"/>
<text xml:space="preserve" text-anchor="middle" x="212.14" y="-57.2" font-family="Times New Roman,serif" font-size="14.00">female</text>
</g>
<!-- Group M+Group J Marriage&#45;&gt;Group E -->
<g id="edge51" class="edge">
<title>Group M+Group J Marriage&#45;&gt;Group E</title>
<path fill="none" stroke="black" d="M187.09,-119.85C159.4,-130.32 129.62,-148.55 129.62,-178.5 129.62,-1238 129.62,-1238 129.62,-1238 129.62,-1254.68 138.58,-1270.61 148.51,-1283.14"/>
<polygon fill="black" stroke="black" points="145.64,-1285.17 154.81,-1290.48 150.95,-1280.61 145.64,-1285.17"/>
<text xml:space="preserve" text-anchor="middle" x="143.12" y="-703.2" font-family="Times New Roman,serif" font-size="14.00">male</text>
</g>
<!-- Group N+Group I Marriage&#45;&gt;Group C -->
<g id="edge55" class="edge">
<title>Group N+Group I Marriage&#45;&gt;Group C</title>
<path fill="none" stroke="black" d="M1081.15,-1093.33C1093.73,-1153.76 1136.91,-1365.52 1161.62,-1542 1164.48,-1562.47 1166.78,-1585.68 1168.34,-1603.41"/>
<polygon fill="black" stroke="black" points="1164.83,-1603.52 1169.17,-1613.19 1171.81,-1602.93 1164.83,-1603.52"/>
<text xml:space="preserve" text-anchor="middle" x="1146.24" y="-1349.2" font-family="Times New Roman,serif" font-size="14.00">male</text>
</g>
<!-- Group N+Group I Marriage&#45;&gt;Group D -->
<g id="edge56" class="edge">
<title>Group N+Group I Marriage&#45;&gt;Group D</title>
<path fill="none" stroke="black" d="M1076.63,-1057.41C1075.95,-1045.76 1075.05,-1030.05 1074.26,-1016.52"/>
<polygon fill="black" stroke="black" points="1077.78,-1016.64 1073.71,-1006.86 1070.79,-1017.05 1077.78,-1016.64"/>
<text xml:space="preserve" text-anchor="middle" x="1094.31" y="-1026.2" font-family="Times New Roman,serif" font-size="14.00">female</text>
</g>
<!-- Group O+Group L Marriage&#45;&gt;Group H -->
<g id="edge60" class="edge">
<title>Group O+Group L Marriage&#45;&gt;Group H</title>
<path fill="none" stroke="black" d="M778.13,-765.69C749.81,-776.04 719.62,-794.18 719.62,-824.5 719.62,-1884 719.62,-1884 719.62,-1884 719.62,-1913.53 748.57,-1931.66 775.92,-1942.21"/>
<polygon fill="black" stroke="black" points="774.64,-1945.46 785.23,-1945.51 776.97,-1938.87 774.64,-1945.46"/>
<text xml:space="preserve" text-anchor="middle" x="738.37" y="-1349.2" font-family="Times New Roman,serif" font-size="14.00">female</text>
</g>
<!-- Group O+Group L Marriage&#45;&gt;Group G -->
<g id="edge59" class="edge">
<title>Group O+Group L Marriage&#45;&gt;Group G</title>
<path fill="none" stroke="black" d="M829.38,-734.41C831.27,-722.76 833.81,-707.05 836,-693.52"/>
<polygon fill="black" stroke="black" points="839.42,-694.28 837.57,-683.84 832.51,-693.16 839.42,-694.28"/>
<text xml:space="preserve" text-anchor="middle" x="848.37" y="-703.2" font-family="Times New Roman,serif" font-size="14.00">male</text>
</g>
<!-- Group P+Group K Marriage&#45;&gt;Group A -->
<g id="edge63" class="edge">
<title>Group P+Group K Marriage&#45;&gt;Group A</title>
<path fill="none" stroke="black" d="M1409.36,-446.09C1397.18,-459.5 1382.62,-480.03 1382.62,-501.5 1382.62,-2118.5 1382.62,-2118.5 1382.62,-2118.5 1382.62,-2197.26 1286.34,-2243.85 1228.4,-2264.76"/>
<polygon fill="black" stroke="black" points="1227.43,-2261.39 1219.14,-2267.98 1229.73,-2268 1227.43,-2261.39"/>
<text xml:space="preserve" text-anchor="middle" x="1396.12" y="-1349.2" font-family="Times New Roman,serif" font-size="14.00">male</text>
</g>
<!-- Group P+Group K Marriage&#45;&gt;Group B -->
<g id="edge64" class="edge">
<title>Group P+Group K Marriage&#45;&gt;Group B</title>
<path fill="none" stroke="black" d="M1340.78,-420.25C1159.32,-402.59 737.96,-361.59 589.52,-347.15"/>
<polygon fill="black" stroke="black" points="590.28,-343.71 579.99,-346.22 589.6,-350.67 590.28,-343.71"/>
<text xml:space="preserve" text-anchor="middle" x="1079.49" y="-380.2" font-family="Times New Roman,serif" font-size="14.00">female</text>
</g>
</g>
</svg>
